 <svg  version="1.0" xmlns="http://www.w3.org/2000/svg"  width="300.000000pt" height="249.000000pt" viewBox="0 0 300.000000 249.000000"  preserveAspectRatio="xMidYMid meet">  <g transform="translate(0.000000,249.000000) scale(0.100000,-0.100000)" fill="#3c91e6" stroke="none"> <path d="M1377 2032 c-12 -13 -17 -37 -17 -80 0 -55 3 -63 25 -78 14 -9 25 -25 25 -36 0 -19 0 -19 28 0 19 14 49 21 98 24 93 5 104 14 104 93 0 89 -9 95 -142 95 -89 0 -107 -3 -121 -18z m71 -75 c2 -12 -3 -17 -17 -17 -12 0 -21 6 -21 13 0 31 32 34 38 4z m70 0 c2 -12 -3 -17 -17 -17 -12 0 -21 6 -21 13 0 31 32 34 38 4z m72 3 c0 -21 -24 -28 -35 -10 -8 14 3 30 21 30 8 0 14 -9 14 -20z"/> <path d="M1030 1937 l0 -54 63 -17 c88 -24 210 -85 302 -151 66 -48 75 -52 60 -28 -77 121 -205 220 -358 277 l-67 26 0 -53z"/> <path d="M1892 1960 c-140 -57 -293 -176 -347 -271 l-19 -34 49 38 c106 80 267 161 363 182 31 6 32 8 32 61 0 30 -1 54 -2 54 -2 0 -36 -14 -76 -30z"/> <path d="M920 1821 l0 -41 -80 0 -80 0 0 -67 c1 -132 39 -420 66 -493 l13 -35 1 30 c1 34 33 110 58 139 27 31 113 66 161 66 56 0 112 -17 145 -44 l25 -21 -24 -30 -24 -29 -46 23 c-64 32 -116 25 -163 -23 -66 -66 -51 -185 29 -228 37 -20 84 -23 123 -8 21 8 26 16 26 45 0 35 0 35 -45 35 l-45 0 0 40 0 41 88 -3 87 -3 0 -95 0 -95 -45 -25 c-62 -34 -175 -36 -237 -3 l-42 22 30 -52 c74 -125 192 -253 313 -339 82 -58 217 -128 245 -128 34 0 192 87 285 156 92 70 199 186 254 278 l33 53 -3 129 -3 129 -51 -90 c-41 -72 -56 -91 -77 -93 -22 -3 -31 7 -78 90 l-54 92 -3 -132 -3 -132 -44 0 -45 0 0 215 0 215 49 0 50 0 62 -110 c35 -60 65 -107 67 -105 3 2 30 51 62 107 l57 103 52 3 52 3 -2 -111 c-1 -61 1 -113 3 -116 18 -17 66 281 75 464 l6 132 -81 0 -82 0 0 41 0 41 -42 -7 c-72 -11 -219 -64 -296 -106 -71 -37 -197 -127 -190 -135 2 -1 52 12 110 31 115 36 298 70 442 81 l89 7 -8 -113 c-8 -131 -10 -140 -37 -140 -18 0 -19 5 -12 102 l7 101 -94 -6 c-136 -9 -295 -42 -423 -89 -61 -22 -118 -40 -126 -40 -8 1 -67 19 -130 41 -138 48 -287 79 -417 88 l-96 6 7 -101 c7 -97 6 -102 -13 -102 -23 0 -28 17 -37 154 l-7 99 89 -7 c179 -14 364 -51 500 -100 72 -26 70 -19 -9 42 -105 81 -300 167 -424 187 l-43 7 0 -41z m650 -426 c49 -26 70 -61 70 -123 0 -50 -3 -57 -40 -95 l-40 -40 45 -72 c25 -40 45 -75 45 -79 0 -3 -21 -6 -48 -6 l-48 0 -44 75 c-41 69 -47 75 -77 75 l-33 0 0 -75 0 -75 -45 0 -45 0 0 215 0 215 115 0 c83 0 124 -4 145 -15z m-418 -549 c56 -66 181 -162 270 -207 l79 -40 85 45 c102 55 184 116 252 191 43 46 57 56 79 53 27 -3 26 -5 -50 -85 -85 -89 -183 -161 -295 -217 l-73 -37 -91 48 c-102 52 -206 131 -285 216 -58 62 -64 77 -30 77 15 0 36 -15 59 -44z"/> <path d="M1408 1334 c-5 -4 -8 -34 -8 -66 l0 -58 58 0 c44 0 63 5 75 18 21 23 22 75 3 91 -17 15 -118 26 -128 15z"/> <path d="M555 1407 c-16 -8 -39 -24 -49 -36 -24 -26 -32 -107 -14 -141 14 -26 68 -57 151 -85 55 -19 74 -57 42 -82 -28 -20 -95 -16 -135 8 l-34 21 -23 -28 c-13 -16 -21 -33 -20 -39 2 -5 23 -19 47 -32 56 -30 144 -31 199 -3 68 34 90 118 48 181 -18 28 -39 40 -107 64 -70 25 -86 34 -88 53 -8 51 53 68 123 35 36 -17 37 -17 56 7 22 30 21 38 -14 64 -34 25 -138 33 -182 13z"/> <path d="M2300 1409 c-81 -33 -105 -142 -44 -202 14 -14 56 -36 92 -48 37 -12 73 -26 80 -32 15 -12 16 -49 0 -65 -20 -20 -102 -15 -131 8 -33 26 -39 26 -66 -11 l-24 -32 24 -18 c32 -25 83 -39 142 -39 96 0 157 54 157 137 0 63 -36 98 -135 131 -66 22 -81 31 -83 50 -2 13 2 30 8 38 18 20 79 17 117 -6 l32 -19 21 26 c29 38 25 52 -22 73 -46 21 -127 25 -168 9z"/> </g> </svg> 